<svg width="186" height="186" viewBox="0 0 186 186" fill="none" xmlns="http://www.w3.org/2000/svg">
<circle cx="93" cy="93" r="93" fill="white"/>
<path d="M147.271 124.363C144.601 122.6 141.457 121.66 138.247 121.66H116.907C114.339 119.581 112.19 116.963 110.652 113.913L66.1013 25.6553C65.2605 26.5502 64.4466 27.4585 63.6597 28.3713L87.2976 75.2028L60.9124 31.7419C60.157 32.717 59.424 33.701 58.7226 34.6939L85.6609 79.0765L56.3215 38.3004C55.6605 39.3512 55.022 40.4109 54.4195 41.4795L84.3344 83.0437L52.4006 45.2953C51.843 46.4173 51.3124 47.5483 50.8133 48.6836L83.3362 87.1266L49.1946 52.6597C48.7494 53.8441 48.3313 55.0329 47.9446 56.2262L82.6573 91.2719L46.744 60.3047C46.4158 61.538 46.119 62.7758 45.8492 64.0136L82.3065 95.4439L45.0713 68.1322C44.8645 69.4056 44.6846 70.6746 44.5408 71.948L82.2886 99.6337L44.1631 76.0488C44.0776 77.3444 44.0192 78.6401 43.9967 79.9269L82.5898 103.801L44.0057 83.9564C44.0417 85.2655 44.1091 86.57 44.2035 87.8657L83.1968 107.924L44.5902 91.7795C44.7476 93.093 44.9409 94.3931 45.1568 95.6843L84.1366 111.985L45.8762 99.4333C46.155 100.733 46.4652 102.02 46.8025 103.298L85.3641 115.948L47.8232 106.847C48.2234 108.129 48.6505 109.394 49.1047 110.636L86.9019 119.799L50.4041 113.962C50.9257 115.213 51.4698 116.442 52.0454 117.644L88.7275 123.508L53.6146 120.721C54.2666 121.936 54.9591 123.116 55.6695 124.274L90.4092 127.034H22V130.414H163.103L149.223 125.645L147.271 124.363ZM132.064 127.03C128.701 127.03 125.45 126.327 122.478 125.035H138.234C140.702 125.035 143.094 125.725 145.167 127.034L132.064 127.03Z" fill="#141414"/>
</svg>
